<svg width="96" height="96" viewBox="0 0 96 96" fill="none" xmlns="http://www.w3.org/2000/svg">
<g clip-path="url(#clip0_101_1029)">
<path d="M16.6974 96C7.4757 96 4.48276e-06 88.5243 3.90722e-06 79.3026L0 16.6974C-5.75533e-07 7.47569 7.47569 4.48276e-06 16.6974 3.90722e-06L79.3026 0C88.5243 -5.75533e-07 96 7.47569 96 16.6974V79.3026C96 88.5243 88.5243 96 79.3026 96H16.6974Z" fill="#2E2E2E"/>
<path d="M48 43.5L45.5 43.5L45.5 43.5L48 43.5ZM49.7678 27.2322C48.7915 26.2559 47.2085 26.2559 46.2322 27.2322L30.3223 43.1421C29.346 44.1184 29.346 45.7014 30.3223 46.6777C31.2986 47.654 32.8816 47.654 33.8579 46.6777L48 32.5355L62.1421 46.6777C63.1184 47.654 64.7014 47.654 65.6777 46.6777C66.654 45.7014 66.654 44.1184 65.6777 43.1421L49.7678 27.2322ZM50.5 73L50.5 43.5L45.5 43.5L45.5 73L50.5 73ZM50.5 43.5L50.5 29L45.5 29L45.5 43.5L50.5 43.5Z" fill="url(#paint0_linear_101_1029)"/>
</g>
<defs>
<linearGradient id="paint0_linear_101_1029" x1="44.4195" y1="39.4261" x2="76.2686" y2="79.7062" gradientUnits="userSpaceOnUse">
<stop stop-color="white"/>
<stop offset="1" stop-color="#4D4D4D"/>
</linearGradient>
<clipPath id="clip0_101_1029">
<rect width="96" height="96" rx="48" fill="white"/>
</clipPath>
</defs>
</svg>
