<svg width="46" height="46" viewBox="0 0 46 46" fill="none" xmlns="http://www.w3.org/2000/svg">
<rect y="45.9951" width="45.9951" height="45.9951" rx="22.9976" transform="rotate(-90 0 45.9951)" fill="url(#paint0_linear_99_900)"/>
<mask id="mask0_99_900" style="mask-type:luminance" maskUnits="userSpaceOnUse" x="8" y="8" width="31" height="16">
<path d="M39 23.4971H8.53576V8.00007H39V23.4971Z" fill="#1F1F1F"/>
</mask>
<g mask="url(#mask0_99_900)">
<path d="M8.68518 18.0346C10.8531 12.2184 16.4647 8.06551 23.0226 8.06551C29.3029 8.06551 34.7084 11.8761 37.0594 17.3056L39 15.5304L38.3169 23.3031C38.3169 23.3243 38.3188 23.3503 38.3188 23.3725H38.3082V23.4023L30.4081 23.3937L33.2515 20.7903C32.0982 16.2074 27.9568 12.8046 23.0236 12.8046C19.1453 12.8046 15.7498 14.9056 13.9113 18.0346H8.68518Z" fill="#1F1F1F"/>
</g>
<mask id="mask1_99_900" style="mask-type:luminance" maskUnits="userSpaceOnUse" x="7" y="23" width="31" height="16">
<path d="M37.3955 38.7275H6.99975V23.2498H37.3955V38.7275Z" fill="white"/>
</mask>
<g mask="url(#mask1_99_900)">
<path d="M32.0894 28.7887C30.2413 31.8703 26.8699 33.9357 23.0224 33.9357C18.1046 33.9357 13.9797 30.5552 12.809 25.9982L15.6273 23.4161L12.4659 23.4122C12.4659 23.3987 12.4621 23.3861 12.4621 23.3727H7.72632C7.72632 23.3813 7.72632 23.3949 7.72632 23.4035L7.0374 31.2793L9.00588 29.4743C11.3695 34.8864 16.7604 38.6787 23.0224 38.6787C29.5514 38.6787 35.138 34.5605 37.3301 28.7887H32.0894Z" fill="#1F1F1F"/>
</g>
<defs>
<linearGradient id="paint0_linear_99_900" x1="22.9976" y1="56.9712" x2="22.9976" y2="94.8649" gradientUnits="userSpaceOnUse">
<stop stop-color="white"/>
<stop offset="1" stop-color="#4D4D4D"/>
</linearGradient>
</defs>
</svg>
