<svg width="96" height="96" viewBox="0 0 96 96" fill="none" xmlns="http://www.w3.org/2000/svg">
<g clip-path="url(#clip0_89_880)">
<path d="M16.6974 96C7.4757 96 4.48276e-06 88.5243 3.90722e-06 79.3026L0 16.6974C-5.75533e-07 7.47569 7.47569 4.48276e-06 16.6974 3.90722e-06L79.3026 0C88.5243 -5.75533e-07 96 7.47569 96 16.6974V79.3026C96 88.5243 88.5243 96 79.3026 96H16.6974Z" fill="#2E2E2E"/>
<path d="M76.0151 58.8649C71.7731 70.7168 60.7927 79.1793 47.9607 79.1793C35.6718 79.1793 25.0948 71.4143 20.4945 60.3503L16.6973 63.9677L18.0341 48.129C18.0341 48.0858 18.0303 48.0329 18.0303 47.9876H18.051V47.9268L33.5093 47.9443L27.9455 53.2495C30.2023 62.5882 38.3058 69.5222 47.9588 69.5222C55.5475 69.5222 62.1916 65.2409 65.789 58.8649H76.0151Z" fill="url(#paint0_linear_89_880)"/>
<path d="M30.2192 36.9512C33.8353 30.6715 40.4323 26.4629 47.9607 26.4629C57.5836 26.4629 65.6548 33.3516 67.9456 42.6374L62.4309 47.899L68.6169 47.907C68.6169 47.9344 68.6244 47.9601 68.6244 47.9876H77.891C77.891 47.97 77.891 47.9423 77.891 47.9247L79.239 31.8759L75.3873 35.5541C70.7624 24.5256 60.2138 16.7979 47.9607 16.7979C35.1853 16.7979 24.2538 25.1896 19.9646 36.9512H30.2192Z" fill="url(#paint1_linear_89_880)"/>
</g>
<rect x="0.5" y="0.5" width="95" height="95" rx="47.5" stroke="url(#paint2_linear_89_880)"/>
<defs>
<linearGradient id="paint0_linear_89_880" x1="22" y1="33" x2="79" y2="95" gradientUnits="userSpaceOnUse">
<stop stop-color="white"/>
<stop offset="1" stop-color="#7E7E7E"/>
</linearGradient>
<linearGradient id="paint1_linear_89_880" x1="22" y1="33" x2="79" y2="95" gradientUnits="userSpaceOnUse">
<stop stop-color="white"/>
<stop offset="1" stop-color="#7E7E7E"/>
</linearGradient>
<linearGradient id="paint2_linear_89_880" x1="0" y1="0" x2="96" y2="89" gradientUnits="userSpaceOnUse">
<stop stop-color="white"/>
<stop offset="1" stop-color="#4D4D4D"/>
</linearGradient>
<clipPath id="clip0_89_880">
<rect width="96" height="96" rx="48" fill="white"/>
</clipPath>
</defs>
</svg>
